REM MD5 d0db17975fa7e683bfdd4508086d2e6e
FILE "Treasures of the Deep (Europe).bin" BINARY
  TRACK 01 MODE2/2352
    INDEX 01 00:00:00
  TRACK 02 AUDIO
    INDEX 00 42:40:31
    INDEX 01 42:42:31
  TRACK 03 AUDIO
    INDEX 00 45:12:11
    INDEX 01 45:14:11
REM LEADOUT 47:54:31
